<mxfile host="app.diagrams.net" modified="2024-07-25T10:27:08.582Z" agent="Mozilla/5.0 (Macintosh; Intel Mac OS X 10_15_7) AppleWebKit/537.36 (KHTML, like Gecko) Chrome/126.0.0.0 Safari/537.36" etag="EROJ_W2mJldWzcANe2rk" version="24.1.0" type="google" pages="6">
  <diagram name="Página-1" id="OfcHixiw3oMMIXyB4sCb">
    <mxGraphModel dx="844" dy="534" grid="1" gridSize="10" guides="1" tooltips="1" connect="1" arrows="1" fold="1" page="1" pageScale="1" pageWidth="827" pageHeight="1169" math="0" shadow="0">
      <root>
        <mxCell id="0" />
        <mxCell id="1" parent="0" />
        <mxCell id="TVdxxpQherE6pdFzIaaj-3" value="" style="endArrow=classic;html=1;rounded=0;entryX=0.5;entryY=0;entryDx=0;entryDy=0;" edge="1" parent="1" target="TVdxxpQherE6pdFzIaaj-4">
          <mxGeometry width="50" height="50" relative="1" as="geometry">
            <mxPoint x="450" y="20" as="sourcePoint" />
            <mxPoint x="400" y="90" as="targetPoint" />
          </mxGeometry>
        </mxCell>
        <mxCell id="TVdxxpQherE6pdFzIaaj-6" value="" style="edgeStyle=orthogonalEdgeStyle;rounded=0;orthogonalLoop=1;jettySize=auto;html=1;entryX=0.5;entryY=0;entryDx=0;entryDy=0;exitX=0;exitY=0.5;exitDx=0;exitDy=0;" edge="1" parent="1" source="TVdxxpQherE6pdFzIaaj-4" target="TVdxxpQherE6pdFzIaaj-5">
          <mxGeometry relative="1" as="geometry">
            <mxPoint x="340" y="160" as="sourcePoint" />
            <mxPoint x="220" y="250" as="targetPoint" />
          </mxGeometry>
        </mxCell>
        <mxCell id="TVdxxpQherE6pdFzIaaj-12" value="" style="edgeStyle=orthogonalEdgeStyle;rounded=0;orthogonalLoop=1;jettySize=auto;html=1;" edge="1" parent="1" source="TVdxxpQherE6pdFzIaaj-4" target="TVdxxpQherE6pdFzIaaj-11">
          <mxGeometry relative="1" as="geometry" />
        </mxCell>
        <mxCell id="TVdxxpQherE6pdFzIaaj-4" value="50" style="ellipse;whiteSpace=wrap;html=1;" vertex="1" parent="1">
          <mxGeometry x="390" y="110" width="120" height="80" as="geometry" />
        </mxCell>
        <mxCell id="TVdxxpQherE6pdFzIaaj-8" value="" style="edgeStyle=orthogonalEdgeStyle;rounded=0;orthogonalLoop=1;jettySize=auto;html=1;" edge="1" parent="1" source="TVdxxpQherE6pdFzIaaj-5" target="TVdxxpQherE6pdFzIaaj-7">
          <mxGeometry relative="1" as="geometry" />
        </mxCell>
        <mxCell id="TVdxxpQherE6pdFzIaaj-5" value="30" style="ellipse;whiteSpace=wrap;html=1;" vertex="1" parent="1">
          <mxGeometry x="50" y="230" width="120" height="80" as="geometry" />
        </mxCell>
        <mxCell id="TVdxxpQherE6pdFzIaaj-10" value="" style="edgeStyle=orthogonalEdgeStyle;rounded=0;orthogonalLoop=1;jettySize=auto;html=1;" edge="1" parent="1" source="TVdxxpQherE6pdFzIaaj-7" target="TVdxxpQherE6pdFzIaaj-9">
          <mxGeometry relative="1" as="geometry" />
        </mxCell>
        <mxCell id="TVdxxpQherE6pdFzIaaj-7" value="40" style="ellipse;whiteSpace=wrap;html=1;" vertex="1" parent="1">
          <mxGeometry x="220" y="320" width="120" height="80" as="geometry" />
        </mxCell>
        <mxCell id="TVdxxpQherE6pdFzIaaj-9" value="35" style="ellipse;whiteSpace=wrap;html=1;" vertex="1" parent="1">
          <mxGeometry x="94" y="430" width="120" height="80" as="geometry" />
        </mxCell>
        <mxCell id="TVdxxpQherE6pdFzIaaj-14" value="" style="edgeStyle=orthogonalEdgeStyle;rounded=0;orthogonalLoop=1;jettySize=auto;html=1;" edge="1" parent="1" source="TVdxxpQherE6pdFzIaaj-11" target="TVdxxpQherE6pdFzIaaj-13">
          <mxGeometry relative="1" as="geometry" />
        </mxCell>
        <mxCell id="TVdxxpQherE6pdFzIaaj-11" value="70" style="ellipse;whiteSpace=wrap;html=1;" vertex="1" parent="1">
          <mxGeometry x="720" y="210" width="120" height="80" as="geometry" />
        </mxCell>
        <mxCell id="A8H7Qbjsd4HQKyzs3Qzg-2" value="" style="edgeStyle=orthogonalEdgeStyle;rounded=0;orthogonalLoop=1;jettySize=auto;html=1;" edge="1" parent="1" source="TVdxxpQherE6pdFzIaaj-13" target="A8H7Qbjsd4HQKyzs3Qzg-1">
          <mxGeometry relative="1" as="geometry" />
        </mxCell>
        <mxCell id="TVdxxpQherE6pdFzIaaj-13" value="80" style="ellipse;whiteSpace=wrap;html=1;" vertex="1" parent="1">
          <mxGeometry x="910" y="320" width="120" height="80" as="geometry" />
        </mxCell>
        <mxCell id="A8H7Qbjsd4HQKyzs3Qzg-1" value="75" style="ellipse;whiteSpace=wrap;html=1;" vertex="1" parent="1">
          <mxGeometry x="730" y="460" width="120" height="80" as="geometry" />
        </mxCell>
      </root>
    </mxGraphModel>
  </diagram>
  <diagram name="Cópia do Página-1" id="NUycyLeec_Dyz_gykniu">
    <mxGraphModel dx="1224" dy="775" grid="1" gridSize="10" guides="1" tooltips="1" connect="1" arrows="1" fold="1" page="1" pageScale="1" pageWidth="827" pageHeight="1169" math="0" shadow="0">
      <root>
        <mxCell id="WLKhhQmMZ07Hm2Cxj5u8-0" />
        <mxCell id="WLKhhQmMZ07Hm2Cxj5u8-1" parent="WLKhhQmMZ07Hm2Cxj5u8-0" />
        <mxCell id="WLKhhQmMZ07Hm2Cxj5u8-2" value="" style="endArrow=classic;html=1;rounded=0;entryX=0.5;entryY=0;entryDx=0;entryDy=0;" edge="1" parent="WLKhhQmMZ07Hm2Cxj5u8-1" target="WLKhhQmMZ07Hm2Cxj5u8-5">
          <mxGeometry width="50" height="50" relative="1" as="geometry">
            <mxPoint x="450" y="20" as="sourcePoint" />
            <mxPoint x="400" y="90" as="targetPoint" />
          </mxGeometry>
        </mxCell>
        <mxCell id="WLKhhQmMZ07Hm2Cxj5u8-3" value="" style="edgeStyle=orthogonalEdgeStyle;rounded=0;orthogonalLoop=1;jettySize=auto;html=1;entryX=0.5;entryY=0;entryDx=0;entryDy=0;exitX=0;exitY=0.5;exitDx=0;exitDy=0;" edge="1" parent="WLKhhQmMZ07Hm2Cxj5u8-1" source="WLKhhQmMZ07Hm2Cxj5u8-5" target="WLKhhQmMZ07Hm2Cxj5u8-7">
          <mxGeometry relative="1" as="geometry">
            <mxPoint x="340" y="160" as="sourcePoint" />
            <mxPoint x="220" y="250" as="targetPoint" />
          </mxGeometry>
        </mxCell>
        <mxCell id="WLKhhQmMZ07Hm2Cxj5u8-4" value="" style="edgeStyle=orthogonalEdgeStyle;rounded=0;orthogonalLoop=1;jettySize=auto;html=1;" edge="1" parent="WLKhhQmMZ07Hm2Cxj5u8-1" source="WLKhhQmMZ07Hm2Cxj5u8-5" target="WLKhhQmMZ07Hm2Cxj5u8-12">
          <mxGeometry relative="1" as="geometry" />
        </mxCell>
        <mxCell id="WLKhhQmMZ07Hm2Cxj5u8-5" value="50" style="ellipse;whiteSpace=wrap;html=1;" vertex="1" parent="WLKhhQmMZ07Hm2Cxj5u8-1">
          <mxGeometry x="390" y="110" width="120" height="80" as="geometry" />
        </mxCell>
        <mxCell id="WLKhhQmMZ07Hm2Cxj5u8-6" value="" style="edgeStyle=orthogonalEdgeStyle;rounded=0;orthogonalLoop=1;jettySize=auto;html=1;" edge="1" parent="WLKhhQmMZ07Hm2Cxj5u8-1" source="WLKhhQmMZ07Hm2Cxj5u8-7" target="WLKhhQmMZ07Hm2Cxj5u8-9">
          <mxGeometry relative="1" as="geometry" />
        </mxCell>
        <mxCell id="WLKhhQmMZ07Hm2Cxj5u8-7" value="30" style="ellipse;whiteSpace=wrap;html=1;" vertex="1" parent="WLKhhQmMZ07Hm2Cxj5u8-1">
          <mxGeometry x="50" y="230" width="120" height="80" as="geometry" />
        </mxCell>
        <mxCell id="WLKhhQmMZ07Hm2Cxj5u8-8" value="" style="edgeStyle=orthogonalEdgeStyle;rounded=0;orthogonalLoop=1;jettySize=auto;html=1;" edge="1" parent="WLKhhQmMZ07Hm2Cxj5u8-1" source="WLKhhQmMZ07Hm2Cxj5u8-9" target="WLKhhQmMZ07Hm2Cxj5u8-10">
          <mxGeometry relative="1" as="geometry" />
        </mxCell>
        <mxCell id="WLKhhQmMZ07Hm2Cxj5u8-9" value="40" style="ellipse;whiteSpace=wrap;html=1;" vertex="1" parent="WLKhhQmMZ07Hm2Cxj5u8-1">
          <mxGeometry x="220" y="320" width="120" height="80" as="geometry" />
        </mxCell>
        <mxCell id="WLKhhQmMZ07Hm2Cxj5u8-10" value="35" style="ellipse;whiteSpace=wrap;html=1;" vertex="1" parent="WLKhhQmMZ07Hm2Cxj5u8-1">
          <mxGeometry x="94" y="430" width="120" height="80" as="geometry" />
        </mxCell>
        <mxCell id="WLKhhQmMZ07Hm2Cxj5u8-11" value="" style="edgeStyle=orthogonalEdgeStyle;rounded=0;orthogonalLoop=1;jettySize=auto;html=1;" edge="1" parent="WLKhhQmMZ07Hm2Cxj5u8-1" source="WLKhhQmMZ07Hm2Cxj5u8-12" target="WLKhhQmMZ07Hm2Cxj5u8-13">
          <mxGeometry relative="1" as="geometry" />
        </mxCell>
        <mxCell id="WLKhhQmMZ07Hm2Cxj5u8-12" value="70" style="ellipse;whiteSpace=wrap;html=1;" vertex="1" parent="WLKhhQmMZ07Hm2Cxj5u8-1">
          <mxGeometry x="720" y="210" width="120" height="80" as="geometry" />
        </mxCell>
        <mxCell id="nMSTddC3pgz8CW68sXz9-1" value="" style="edgeStyle=orthogonalEdgeStyle;rounded=0;orthogonalLoop=1;jettySize=auto;html=1;" edge="1" parent="WLKhhQmMZ07Hm2Cxj5u8-1" source="WLKhhQmMZ07Hm2Cxj5u8-13" target="nMSTddC3pgz8CW68sXz9-0">
          <mxGeometry relative="1" as="geometry" />
        </mxCell>
        <mxCell id="WLKhhQmMZ07Hm2Cxj5u8-13" value="80" style="ellipse;whiteSpace=wrap;html=1;" vertex="1" parent="WLKhhQmMZ07Hm2Cxj5u8-1">
          <mxGeometry x="860" y="310" width="120" height="80" as="geometry" />
        </mxCell>
        <mxCell id="-cu2QdQYNfER8pgJut7M-0" value="32" style="ellipse;whiteSpace=wrap;html=1;" vertex="1" parent="WLKhhQmMZ07Hm2Cxj5u8-1">
          <mxGeometry x="294" y="530" width="120" height="80" as="geometry" />
        </mxCell>
        <mxCell id="nMSTddC3pgz8CW68sXz9-0" value="75" style="ellipse;whiteSpace=wrap;html=1;" vertex="1" parent="WLKhhQmMZ07Hm2Cxj5u8-1">
          <mxGeometry x="730" y="440" width="120" height="80" as="geometry" />
        </mxCell>
      </root>
    </mxGraphModel>
  </diagram>
  <diagram name="Cópia do Página-1" id="tNj6jrUfgqhGPm1oRGnY">
    <mxGraphModel dx="2051" dy="775" grid="1" gridSize="10" guides="1" tooltips="1" connect="1" arrows="1" fold="1" page="1" pageScale="1" pageWidth="827" pageHeight="1169" math="0" shadow="0">
      <root>
        <mxCell id="4WltcHXALHqamlQywEIL-0" />
        <mxCell id="4WltcHXALHqamlQywEIL-1" parent="4WltcHXALHqamlQywEIL-0" />
        <mxCell id="4WltcHXALHqamlQywEIL-2" value="" style="endArrow=classic;html=1;rounded=0;entryX=0.5;entryY=0;entryDx=0;entryDy=0;" edge="1" parent="4WltcHXALHqamlQywEIL-1" target="4WltcHXALHqamlQywEIL-5">
          <mxGeometry width="50" height="50" relative="1" as="geometry">
            <mxPoint x="450" y="20" as="sourcePoint" />
            <mxPoint x="400" y="90" as="targetPoint" />
          </mxGeometry>
        </mxCell>
        <mxCell id="4WltcHXALHqamlQywEIL-3" value="" style="edgeStyle=orthogonalEdgeStyle;rounded=0;orthogonalLoop=1;jettySize=auto;html=1;entryX=0.5;entryY=0;entryDx=0;entryDy=0;exitX=0;exitY=0.5;exitDx=0;exitDy=0;" edge="1" parent="4WltcHXALHqamlQywEIL-1" source="4WltcHXALHqamlQywEIL-5" target="4WltcHXALHqamlQywEIL-7">
          <mxGeometry relative="1" as="geometry">
            <mxPoint x="340" y="160" as="sourcePoint" />
            <mxPoint x="220" y="250" as="targetPoint" />
          </mxGeometry>
        </mxCell>
        <mxCell id="4WltcHXALHqamlQywEIL-4" value="" style="edgeStyle=orthogonalEdgeStyle;rounded=0;orthogonalLoop=1;jettySize=auto;html=1;" edge="1" parent="4WltcHXALHqamlQywEIL-1" source="4WltcHXALHqamlQywEIL-5" target="4WltcHXALHqamlQywEIL-13">
          <mxGeometry relative="1" as="geometry" />
        </mxCell>
        <mxCell id="4WltcHXALHqamlQywEIL-5" value="50" style="ellipse;whiteSpace=wrap;html=1;" vertex="1" parent="4WltcHXALHqamlQywEIL-1">
          <mxGeometry x="390" y="110" width="120" height="80" as="geometry" />
        </mxCell>
        <mxCell id="4WltcHXALHqamlQywEIL-6" value="" style="edgeStyle=orthogonalEdgeStyle;rounded=0;orthogonalLoop=1;jettySize=auto;html=1;" edge="1" parent="4WltcHXALHqamlQywEIL-1" source="4WltcHXALHqamlQywEIL-7" target="4WltcHXALHqamlQywEIL-9">
          <mxGeometry relative="1" as="geometry" />
        </mxCell>
        <mxCell id="4WltcHXALHqamlQywEIL-7" value="30" style="ellipse;whiteSpace=wrap;html=1;" vertex="1" parent="4WltcHXALHqamlQywEIL-1">
          <mxGeometry x="50" y="230" width="120" height="80" as="geometry" />
        </mxCell>
        <mxCell id="4WltcHXALHqamlQywEIL-8" value="" style="edgeStyle=orthogonalEdgeStyle;rounded=0;orthogonalLoop=1;jettySize=auto;html=1;" edge="1" parent="4WltcHXALHqamlQywEIL-1" source="4WltcHXALHqamlQywEIL-9" target="4WltcHXALHqamlQywEIL-11">
          <mxGeometry relative="1" as="geometry" />
        </mxCell>
        <mxCell id="4WltcHXALHqamlQywEIL-9" value="40" style="ellipse;whiteSpace=wrap;html=1;" vertex="1" parent="4WltcHXALHqamlQywEIL-1">
          <mxGeometry x="220" y="320" width="120" height="80" as="geometry" />
        </mxCell>
        <mxCell id="4WltcHXALHqamlQywEIL-10" value="" style="edgeStyle=orthogonalEdgeStyle;rounded=0;orthogonalLoop=1;jettySize=auto;html=1;" edge="1" parent="4WltcHXALHqamlQywEIL-1" source="4WltcHXALHqamlQywEIL-11" target="4WltcHXALHqamlQywEIL-15">
          <mxGeometry relative="1" as="geometry" />
        </mxCell>
        <mxCell id="4WltcHXALHqamlQywEIL-11" value="35" style="ellipse;whiteSpace=wrap;html=1;" vertex="1" parent="4WltcHXALHqamlQywEIL-1">
          <mxGeometry x="94" y="430" width="120" height="80" as="geometry" />
        </mxCell>
        <mxCell id="4WltcHXALHqamlQywEIL-12" value="" style="edgeStyle=orthogonalEdgeStyle;rounded=0;orthogonalLoop=1;jettySize=auto;html=1;" edge="1" parent="4WltcHXALHqamlQywEIL-1" source="4WltcHXALHqamlQywEIL-13" target="4WltcHXALHqamlQywEIL-14">
          <mxGeometry relative="1" as="geometry" />
        </mxCell>
        <mxCell id="4WltcHXALHqamlQywEIL-13" value="70" style="ellipse;whiteSpace=wrap;html=1;" vertex="1" parent="4WltcHXALHqamlQywEIL-1">
          <mxGeometry x="720" y="210" width="120" height="80" as="geometry" />
        </mxCell>
        <mxCell id="EhWhCwGkI5i4tcCezr7k-1" value="" style="edgeStyle=orthogonalEdgeStyle;rounded=0;orthogonalLoop=1;jettySize=auto;html=1;" edge="1" parent="4WltcHXALHqamlQywEIL-1" source="4WltcHXALHqamlQywEIL-14" target="EhWhCwGkI5i4tcCezr7k-0">
          <mxGeometry relative="1" as="geometry" />
        </mxCell>
        <mxCell id="4WltcHXALHqamlQywEIL-14" value="80" style="ellipse;whiteSpace=wrap;html=1;" vertex="1" parent="4WltcHXALHqamlQywEIL-1">
          <mxGeometry x="860" y="310" width="120" height="80" as="geometry" />
        </mxCell>
        <mxCell id="4WltcHXALHqamlQywEIL-15" value="32" style="ellipse;whiteSpace=wrap;html=1;" vertex="1" parent="4WltcHXALHqamlQywEIL-1">
          <mxGeometry x="-70" y="530" width="120" height="80" as="geometry" />
        </mxCell>
        <mxCell id="EhWhCwGkI5i4tcCezr7k-0" value="75" style="ellipse;whiteSpace=wrap;html=1;" vertex="1" parent="4WltcHXALHqamlQywEIL-1">
          <mxGeometry x="720" y="430" width="120" height="80" as="geometry" />
        </mxCell>
      </root>
    </mxGraphModel>
  </diagram>
  <diagram name="Cópia do Cópia do Página-1" id="GZ8rN7a5R6n0UXnr6-HT">
    <mxGraphModel dx="2051" dy="775" grid="1" gridSize="10" guides="1" tooltips="1" connect="1" arrows="1" fold="1" page="1" pageScale="1" pageWidth="827" pageHeight="1169" math="0" shadow="0">
      <root>
        <mxCell id="QxjQJ3YGZ8Ddu-VtO4EV-0" />
        <mxCell id="QxjQJ3YGZ8Ddu-VtO4EV-1" parent="QxjQJ3YGZ8Ddu-VtO4EV-0" />
        <mxCell id="QxjQJ3YGZ8Ddu-VtO4EV-2" value="" style="endArrow=classic;html=1;rounded=0;entryX=0.5;entryY=0;entryDx=0;entryDy=0;" edge="1" parent="QxjQJ3YGZ8Ddu-VtO4EV-1" target="QxjQJ3YGZ8Ddu-VtO4EV-5">
          <mxGeometry width="50" height="50" relative="1" as="geometry">
            <mxPoint x="450" y="20" as="sourcePoint" />
            <mxPoint x="400" y="90" as="targetPoint" />
          </mxGeometry>
        </mxCell>
        <mxCell id="QxjQJ3YGZ8Ddu-VtO4EV-3" value="" style="edgeStyle=orthogonalEdgeStyle;rounded=0;orthogonalLoop=1;jettySize=auto;html=1;entryX=0.5;entryY=0;entryDx=0;entryDy=0;exitX=0;exitY=0.5;exitDx=0;exitDy=0;" edge="1" parent="QxjQJ3YGZ8Ddu-VtO4EV-1" source="QxjQJ3YGZ8Ddu-VtO4EV-5" target="QxjQJ3YGZ8Ddu-VtO4EV-7">
          <mxGeometry relative="1" as="geometry">
            <mxPoint x="340" y="160" as="sourcePoint" />
            <mxPoint x="220" y="250" as="targetPoint" />
          </mxGeometry>
        </mxCell>
        <mxCell id="QxjQJ3YGZ8Ddu-VtO4EV-4" value="" style="edgeStyle=orthogonalEdgeStyle;rounded=0;orthogonalLoop=1;jettySize=auto;html=1;" edge="1" parent="QxjQJ3YGZ8Ddu-VtO4EV-1" source="QxjQJ3YGZ8Ddu-VtO4EV-5" target="QxjQJ3YGZ8Ddu-VtO4EV-13">
          <mxGeometry relative="1" as="geometry" />
        </mxCell>
        <mxCell id="QxjQJ3YGZ8Ddu-VtO4EV-5" value="50" style="ellipse;whiteSpace=wrap;html=1;" vertex="1" parent="QxjQJ3YGZ8Ddu-VtO4EV-1">
          <mxGeometry x="390" y="110" width="120" height="80" as="geometry" />
        </mxCell>
        <mxCell id="QxjQJ3YGZ8Ddu-VtO4EV-6" value="" style="edgeStyle=orthogonalEdgeStyle;rounded=0;orthogonalLoop=1;jettySize=auto;html=1;" edge="1" parent="QxjQJ3YGZ8Ddu-VtO4EV-1" source="QxjQJ3YGZ8Ddu-VtO4EV-7" target="QxjQJ3YGZ8Ddu-VtO4EV-9">
          <mxGeometry relative="1" as="geometry" />
        </mxCell>
        <mxCell id="QxjQJ3YGZ8Ddu-VtO4EV-7" value="30" style="ellipse;whiteSpace=wrap;html=1;" vertex="1" parent="QxjQJ3YGZ8Ddu-VtO4EV-1">
          <mxGeometry x="50" y="230" width="120" height="80" as="geometry" />
        </mxCell>
        <mxCell id="QxjQJ3YGZ8Ddu-VtO4EV-8" value="" style="edgeStyle=orthogonalEdgeStyle;rounded=0;orthogonalLoop=1;jettySize=auto;html=1;" edge="1" parent="QxjQJ3YGZ8Ddu-VtO4EV-1" source="QxjQJ3YGZ8Ddu-VtO4EV-9" target="QxjQJ3YGZ8Ddu-VtO4EV-11">
          <mxGeometry relative="1" as="geometry" />
        </mxCell>
        <mxCell id="QxjQJ3YGZ8Ddu-VtO4EV-9" value="40" style="ellipse;whiteSpace=wrap;html=1;" vertex="1" parent="QxjQJ3YGZ8Ddu-VtO4EV-1">
          <mxGeometry x="220" y="320" width="120" height="80" as="geometry" />
        </mxCell>
        <mxCell id="QxjQJ3YGZ8Ddu-VtO4EV-10" value="" style="edgeStyle=orthogonalEdgeStyle;rounded=0;orthogonalLoop=1;jettySize=auto;html=1;" edge="1" parent="QxjQJ3YGZ8Ddu-VtO4EV-1" source="QxjQJ3YGZ8Ddu-VtO4EV-11" target="QxjQJ3YGZ8Ddu-VtO4EV-15">
          <mxGeometry relative="1" as="geometry" />
        </mxCell>
        <mxCell id="QxjQJ3YGZ8Ddu-VtO4EV-11" value="35" style="ellipse;whiteSpace=wrap;html=1;" vertex="1" parent="QxjQJ3YGZ8Ddu-VtO4EV-1">
          <mxGeometry x="94" y="430" width="120" height="80" as="geometry" />
        </mxCell>
        <mxCell id="QxjQJ3YGZ8Ddu-VtO4EV-12" value="" style="edgeStyle=orthogonalEdgeStyle;rounded=0;orthogonalLoop=1;jettySize=auto;html=1;" edge="1" parent="QxjQJ3YGZ8Ddu-VtO4EV-1" source="QxjQJ3YGZ8Ddu-VtO4EV-13" target="QxjQJ3YGZ8Ddu-VtO4EV-14">
          <mxGeometry relative="1" as="geometry" />
        </mxCell>
        <mxCell id="QxjQJ3YGZ8Ddu-VtO4EV-13" value="70" style="ellipse;whiteSpace=wrap;html=1;fillColor=#fff2cc;strokeColor=#d6b656;" vertex="1" parent="QxjQJ3YGZ8Ddu-VtO4EV-1">
          <mxGeometry x="720" y="210" width="120" height="80" as="geometry" />
        </mxCell>
        <mxCell id="vjn7OJl5PUaBACWEvdlT-1" value="" style="edgeStyle=orthogonalEdgeStyle;rounded=0;orthogonalLoop=1;jettySize=auto;html=1;" edge="1" parent="QxjQJ3YGZ8Ddu-VtO4EV-1" source="QxjQJ3YGZ8Ddu-VtO4EV-14" target="vjn7OJl5PUaBACWEvdlT-0">
          <mxGeometry relative="1" as="geometry" />
        </mxCell>
        <mxCell id="QxjQJ3YGZ8Ddu-VtO4EV-14" value="80" style="ellipse;whiteSpace=wrap;html=1;" vertex="1" parent="QxjQJ3YGZ8Ddu-VtO4EV-1">
          <mxGeometry x="850" y="310" width="120" height="80" as="geometry" />
        </mxCell>
        <mxCell id="QxjQJ3YGZ8Ddu-VtO4EV-15" value="32" style="ellipse;whiteSpace=wrap;html=1;" vertex="1" parent="QxjQJ3YGZ8Ddu-VtO4EV-1">
          <mxGeometry x="-70" y="530" width="120" height="80" as="geometry" />
        </mxCell>
        <mxCell id="vjn7OJl5PUaBACWEvdlT-0" value="75" style="ellipse;whiteSpace=wrap;html=1;" vertex="1" parent="QxjQJ3YGZ8Ddu-VtO4EV-1">
          <mxGeometry x="720" y="440" width="120" height="80" as="geometry" />
        </mxCell>
      </root>
    </mxGraphModel>
  </diagram>
  <diagram name="Cópia do Cópia do Cópia do Página-1" id="-ddzsanhv9sRQ7K6Fu7a">
    <mxGraphModel dx="2051" dy="775" grid="1" gridSize="10" guides="1" tooltips="1" connect="1" arrows="1" fold="1" page="1" pageScale="1" pageWidth="827" pageHeight="1169" math="0" shadow="0">
      <root>
        <mxCell id="ktuRIno78ziHgeFWc8Fz-0" />
        <mxCell id="ktuRIno78ziHgeFWc8Fz-1" parent="ktuRIno78ziHgeFWc8Fz-0" />
        <mxCell id="ktuRIno78ziHgeFWc8Fz-2" value="" style="endArrow=classic;html=1;rounded=0;entryX=0.5;entryY=0;entryDx=0;entryDy=0;" edge="1" parent="ktuRIno78ziHgeFWc8Fz-1" target="ktuRIno78ziHgeFWc8Fz-5">
          <mxGeometry width="50" height="50" relative="1" as="geometry">
            <mxPoint x="450" y="20" as="sourcePoint" />
            <mxPoint x="400" y="90" as="targetPoint" />
          </mxGeometry>
        </mxCell>
        <mxCell id="ktuRIno78ziHgeFWc8Fz-3" value="" style="edgeStyle=orthogonalEdgeStyle;rounded=0;orthogonalLoop=1;jettySize=auto;html=1;entryX=0.5;entryY=0;entryDx=0;entryDy=0;exitX=0;exitY=0.5;exitDx=0;exitDy=0;" edge="1" parent="ktuRIno78ziHgeFWc8Fz-1" source="ktuRIno78ziHgeFWc8Fz-5" target="ktuRIno78ziHgeFWc8Fz-7">
          <mxGeometry relative="1" as="geometry">
            <mxPoint x="340" y="160" as="sourcePoint" />
            <mxPoint x="220" y="250" as="targetPoint" />
          </mxGeometry>
        </mxCell>
        <mxCell id="ktuRIno78ziHgeFWc8Fz-4" value="" style="edgeStyle=orthogonalEdgeStyle;rounded=0;orthogonalLoop=1;jettySize=auto;html=1;" edge="1" parent="ktuRIno78ziHgeFWc8Fz-1" source="ktuRIno78ziHgeFWc8Fz-5" target="ktuRIno78ziHgeFWc8Fz-13">
          <mxGeometry relative="1" as="geometry" />
        </mxCell>
        <mxCell id="ktuRIno78ziHgeFWc8Fz-5" value="50" style="ellipse;whiteSpace=wrap;html=1;" vertex="1" parent="ktuRIno78ziHgeFWc8Fz-1">
          <mxGeometry x="390" y="110" width="120" height="80" as="geometry" />
        </mxCell>
        <mxCell id="ktuRIno78ziHgeFWc8Fz-6" value="" style="edgeStyle=orthogonalEdgeStyle;rounded=0;orthogonalLoop=1;jettySize=auto;html=1;" edge="1" parent="ktuRIno78ziHgeFWc8Fz-1" source="ktuRIno78ziHgeFWc8Fz-7" target="ktuRIno78ziHgeFWc8Fz-9">
          <mxGeometry relative="1" as="geometry" />
        </mxCell>
        <mxCell id="ktuRIno78ziHgeFWc8Fz-7" value="30" style="ellipse;whiteSpace=wrap;html=1;" vertex="1" parent="ktuRIno78ziHgeFWc8Fz-1">
          <mxGeometry x="50" y="230" width="120" height="80" as="geometry" />
        </mxCell>
        <mxCell id="ktuRIno78ziHgeFWc8Fz-8" value="" style="edgeStyle=orthogonalEdgeStyle;rounded=0;orthogonalLoop=1;jettySize=auto;html=1;" edge="1" parent="ktuRIno78ziHgeFWc8Fz-1" source="ktuRIno78ziHgeFWc8Fz-9" target="ktuRIno78ziHgeFWc8Fz-11">
          <mxGeometry relative="1" as="geometry" />
        </mxCell>
        <mxCell id="ktuRIno78ziHgeFWc8Fz-9" value="40" style="ellipse;whiteSpace=wrap;html=1;" vertex="1" parent="ktuRIno78ziHgeFWc8Fz-1">
          <mxGeometry x="220" y="320" width="120" height="80" as="geometry" />
        </mxCell>
        <mxCell id="ktuRIno78ziHgeFWc8Fz-10" value="" style="edgeStyle=orthogonalEdgeStyle;rounded=0;orthogonalLoop=1;jettySize=auto;html=1;" edge="1" parent="ktuRIno78ziHgeFWc8Fz-1" source="ktuRIno78ziHgeFWc8Fz-11" target="ktuRIno78ziHgeFWc8Fz-15">
          <mxGeometry relative="1" as="geometry" />
        </mxCell>
        <mxCell id="ktuRIno78ziHgeFWc8Fz-11" value="35" style="ellipse;whiteSpace=wrap;html=1;" vertex="1" parent="ktuRIno78ziHgeFWc8Fz-1">
          <mxGeometry x="94" y="430" width="120" height="80" as="geometry" />
        </mxCell>
        <mxCell id="ktuRIno78ziHgeFWc8Fz-12" value="" style="edgeStyle=orthogonalEdgeStyle;rounded=0;orthogonalLoop=1;jettySize=auto;html=1;" edge="1" parent="ktuRIno78ziHgeFWc8Fz-1" source="ktuRIno78ziHgeFWc8Fz-13" target="ktuRIno78ziHgeFWc8Fz-14">
          <mxGeometry relative="1" as="geometry" />
        </mxCell>
        <mxCell id="ktuRIno78ziHgeFWc8Fz-13" value="70" style="ellipse;whiteSpace=wrap;html=1;fillColor=#fff2cc;strokeColor=#d6b656;" vertex="1" parent="ktuRIno78ziHgeFWc8Fz-1">
          <mxGeometry x="720" y="210" width="120" height="80" as="geometry" />
        </mxCell>
        <mxCell id="d2i7_o4rdYFwEh5Tf9AS-1" value="" style="edgeStyle=orthogonalEdgeStyle;rounded=0;orthogonalLoop=1;jettySize=auto;html=1;" edge="1" parent="ktuRIno78ziHgeFWc8Fz-1" source="ktuRIno78ziHgeFWc8Fz-14" target="d2i7_o4rdYFwEh5Tf9AS-0">
          <mxGeometry relative="1" as="geometry" />
        </mxCell>
        <mxCell id="ktuRIno78ziHgeFWc8Fz-14" value="80" style="ellipse;whiteSpace=wrap;html=1;" vertex="1" parent="ktuRIno78ziHgeFWc8Fz-1">
          <mxGeometry x="860" y="310" width="120" height="80" as="geometry" />
        </mxCell>
        <mxCell id="ktuRIno78ziHgeFWc8Fz-15" value="32" style="ellipse;whiteSpace=wrap;html=1;" vertex="1" parent="ktuRIno78ziHgeFWc8Fz-1">
          <mxGeometry x="-70" y="530" width="120" height="80" as="geometry" />
        </mxCell>
        <mxCell id="d2i7_o4rdYFwEh5Tf9AS-0" value="75" style="ellipse;whiteSpace=wrap;html=1;fillColor=#dae8fc;strokeColor=#6c8ebf;" vertex="1" parent="ktuRIno78ziHgeFWc8Fz-1">
          <mxGeometry x="720" y="440" width="120" height="80" as="geometry" />
        </mxCell>
      </root>
    </mxGraphModel>
  </diagram>
  <diagram name="Cópia do Cópia do Cópia do Cópia do Página-1" id="iE4fFR8ElLV37jgEpGLc">
    <mxGraphModel grid="1" page="1" gridSize="10" guides="1" tooltips="1" connect="1" arrows="1" fold="1" pageScale="1" pageWidth="827" pageHeight="1169" math="0" shadow="0">
      <root>
        <mxCell id="bkQfcE5m8-as2X7i7N5R-0" />
        <mxCell id="bkQfcE5m8-as2X7i7N5R-1" parent="bkQfcE5m8-as2X7i7N5R-0" />
        <mxCell id="bkQfcE5m8-as2X7i7N5R-2" value="" style="endArrow=classic;html=1;rounded=0;entryX=0.5;entryY=0;entryDx=0;entryDy=0;" edge="1" parent="bkQfcE5m8-as2X7i7N5R-1" target="bkQfcE5m8-as2X7i7N5R-5">
          <mxGeometry width="50" height="50" relative="1" as="geometry">
            <mxPoint x="450" y="20" as="sourcePoint" />
            <mxPoint x="400" y="90" as="targetPoint" />
          </mxGeometry>
        </mxCell>
        <mxCell id="bkQfcE5m8-as2X7i7N5R-3" value="" style="edgeStyle=orthogonalEdgeStyle;rounded=0;orthogonalLoop=1;jettySize=auto;html=1;entryX=0.5;entryY=0;entryDx=0;entryDy=0;exitX=0;exitY=0.5;exitDx=0;exitDy=0;" edge="1" parent="bkQfcE5m8-as2X7i7N5R-1" source="bkQfcE5m8-as2X7i7N5R-5" target="bkQfcE5m8-as2X7i7N5R-7">
          <mxGeometry relative="1" as="geometry">
            <mxPoint x="340" y="160" as="sourcePoint" />
            <mxPoint x="220" y="250" as="targetPoint" />
          </mxGeometry>
        </mxCell>
        <mxCell id="bkQfcE5m8-as2X7i7N5R-4" value="" style="edgeStyle=orthogonalEdgeStyle;rounded=0;orthogonalLoop=1;jettySize=auto;html=1;" edge="1" parent="bkQfcE5m8-as2X7i7N5R-1" source="bkQfcE5m8-as2X7i7N5R-5" target="bkQfcE5m8-as2X7i7N5R-13">
          <mxGeometry relative="1" as="geometry" />
        </mxCell>
        <mxCell id="bkQfcE5m8-as2X7i7N5R-5" value="50" style="ellipse;whiteSpace=wrap;html=1;" vertex="1" parent="bkQfcE5m8-as2X7i7N5R-1">
          <mxGeometry x="390" y="110" width="120" height="80" as="geometry" />
        </mxCell>
        <mxCell id="bkQfcE5m8-as2X7i7N5R-6" value="" style="edgeStyle=orthogonalEdgeStyle;rounded=0;orthogonalLoop=1;jettySize=auto;html=1;" edge="1" parent="bkQfcE5m8-as2X7i7N5R-1" source="bkQfcE5m8-as2X7i7N5R-7" target="bkQfcE5m8-as2X7i7N5R-9">
          <mxGeometry relative="1" as="geometry" />
        </mxCell>
        <mxCell id="bkQfcE5m8-as2X7i7N5R-7" value="30" style="ellipse;whiteSpace=wrap;html=1;" vertex="1" parent="bkQfcE5m8-as2X7i7N5R-1">
          <mxGeometry x="50" y="230" width="120" height="80" as="geometry" />
        </mxCell>
        <mxCell id="bkQfcE5m8-as2X7i7N5R-8" value="" style="edgeStyle=orthogonalEdgeStyle;rounded=0;orthogonalLoop=1;jettySize=auto;html=1;" edge="1" parent="bkQfcE5m8-as2X7i7N5R-1" source="bkQfcE5m8-as2X7i7N5R-9" target="bkQfcE5m8-as2X7i7N5R-11">
          <mxGeometry relative="1" as="geometry" />
        </mxCell>
        <mxCell id="bkQfcE5m8-as2X7i7N5R-9" value="40" style="ellipse;whiteSpace=wrap;html=1;" vertex="1" parent="bkQfcE5m8-as2X7i7N5R-1">
          <mxGeometry x="220" y="320" width="120" height="80" as="geometry" />
        </mxCell>
        <mxCell id="bkQfcE5m8-as2X7i7N5R-10" value="" style="edgeStyle=orthogonalEdgeStyle;rounded=0;orthogonalLoop=1;jettySize=auto;html=1;" edge="1" parent="bkQfcE5m8-as2X7i7N5R-1" source="bkQfcE5m8-as2X7i7N5R-11" target="bkQfcE5m8-as2X7i7N5R-16">
          <mxGeometry relative="1" as="geometry" />
        </mxCell>
        <mxCell id="bkQfcE5m8-as2X7i7N5R-11" value="35" style="ellipse;whiteSpace=wrap;html=1;" vertex="1" parent="bkQfcE5m8-as2X7i7N5R-1">
          <mxGeometry x="94" y="430" width="120" height="80" as="geometry" />
        </mxCell>
        <mxCell id="bkQfcE5m8-as2X7i7N5R-12" value="" style="edgeStyle=orthogonalEdgeStyle;rounded=0;orthogonalLoop=1;jettySize=auto;html=1;" edge="1" parent="bkQfcE5m8-as2X7i7N5R-1" source="bkQfcE5m8-as2X7i7N5R-13" target="bkQfcE5m8-as2X7i7N5R-15">
          <mxGeometry relative="1" as="geometry" />
        </mxCell>
        <mxCell id="bkQfcE5m8-as2X7i7N5R-13" value="75" style="ellipse;whiteSpace=wrap;html=1;" vertex="1" parent="bkQfcE5m8-as2X7i7N5R-1">
          <mxGeometry x="720" y="210" width="120" height="80" as="geometry" />
        </mxCell>
        <mxCell id="bkQfcE5m8-as2X7i7N5R-15" value="80" style="ellipse;whiteSpace=wrap;html=1;" vertex="1" parent="bkQfcE5m8-as2X7i7N5R-1">
          <mxGeometry x="860" y="310" width="120" height="80" as="geometry" />
        </mxCell>
        <mxCell id="bkQfcE5m8-as2X7i7N5R-16" value="32" style="ellipse;whiteSpace=wrap;html=1;" vertex="1" parent="bkQfcE5m8-as2X7i7N5R-1">
          <mxGeometry x="-70" y="530" width="120" height="80" as="geometry" />
        </mxCell>
      </root>
    </mxGraphModel>
  </diagram>
</mxfile>
